<svg width="389.981" height="389.981" xmlns="http://www.w3.org/2000/svg">

 <g>
  <title>background</title>
  <rect fill="none" id="canvas_background" height="402" width="582" y="-1" x="-1"/>
 </g>
 <g>
  <title>Layer 1</title>
  <g stroke="null" id="svg_1">
   <path fill="#6b6e70" stroke="null" id="svg_2" d="m148.78533,287.572624l-3.11761,30.375761c-0.251656,2.451247 0.516793,4.896699 2.115481,6.72905c1.597564,1.832351 3.874824,2.877752 6.264429,2.877752l89.091734,0c2.388482,0 4.665742,-1.046561 6.264429,-2.877752c1.597564,-1.832351 2.366013,-4.277803 2.115481,-6.72905l-3.11761,-30.375761l110.972298,0c17.272119,0 31.32327,-14.495389 31.32327,-32.313579l0,-223.945466c-0.001123,-17.81819 -14.053398,-32.313579 -31.324393,-32.313579l-328.300584,0c-17.272119,0 -31.32327,14.495389 -31.32327,32.313579l0,223.945466c0,17.81819 14.051151,32.313579 31.32327,32.313579l117.713075,0zm84.987724,22.598991l-70.36136,0l2.318827,-22.598991l65.722581,0l2.319951,22.598991zm-202.700799,-293.786884l328.300584,0c7.979957,0 14.471326,6.696598 14.471326,14.928848l0,197.153278l-357.243236,0l0,-197.153278c0,-8.23225 6.491369,-14.928848 14.471326,-14.928848zm-14.471326,238.874314l0,-9.407457l357.242112,0l0,9.407457c0,8.23225 -6.491369,14.928848 -14.471326,14.928848l-328.29946,0c-7.979957,0 -14.471326,-6.696598 -14.471326,-14.928848z"/>
   <path fill="#6b6e70" stroke="null" id="svg_3" d="m360.140282,384.956292c1.52791,-2.59612 1.632392,-5.826203 0.274125,-8.520836l-16.641856,-33.02983c-1.450391,-2.877752 -4.332073,-4.683446 -7.476646,-4.683446l-280.146716,0c-3.143449,0 -6.026255,1.805694 -7.476646,4.683446l-16.641856,33.02983c-1.357143,2.694633 -1.253785,5.924716 0.274125,8.520836s4.259048,4.180448 7.202521,4.180448l313.430429,0c2.943473,0.001159 5.674611,-1.584328 7.202521,-4.180448zm-306.757059,-13.203124l7.882216,-15.645099l269.913092,0l7.883339,15.645099l-285.678647,0z"/>
   <path stroke="null" id="svg_4" d="m373.844164,405.781839l-13.481555,0c-19.512304,0 -35.387959,16.376416 -35.387959,36.506776c0,4.800504 3.772589,8.692365 8.425972,8.692365l67.404405,0c4.653383,0 8.425972,-3.891862 8.425972,-8.692365c0.001123,-20.1292 -15.873408,-36.506776 -35.386835,-36.506776zm-29.988596,27.81441c3.072671,-6.185487 9.319125,-10.42968 16.507041,-10.42968l13.481555,0c7.187916,0 13.43437,4.244192 16.508164,10.42968l-46.49676,0z"/>
  </g>
  <g id="svg_5"/>
  <g id="svg_6"/>
  <g id="svg_7"/>
  <g id="svg_8"/>
  <g id="svg_9"/>
  <g id="svg_10"/>
  <g id="svg_11"/>
  <g id="svg_12"/>
  <g id="svg_13"/>
  <g id="svg_14"/>
  <g id="svg_15"/>
  <g id="svg_16"/>
  <g id="svg_17"/>
  <g id="svg_18"/>
  <g id="svg_19"/>
 </g>
</svg>